<svg width="462" height="123" viewBox="0 0 462 123" fill="none" xmlns="http://www.w3.org/2000/svg">
<path fill-rule="evenodd" clip-rule="evenodd" d="M0 0H80.7955V40.3971L121.191 0.00132751V122.254L0 0ZM80.7891 80.7916H121.186L80.7891 40.3945V80.7916Z" fill="#1A232A"/>
<path d="M187.054 47.16H195.934V87H187.054V47.16ZM212.734 46.28C215.027 46.28 217.134 46.6 219.054 47.24C221.027 47.88 222.707 48.8667 224.094 50.2C225.534 51.48 226.627 53.08 227.374 55C228.174 56.92 228.574 59.1867 228.574 61.8V87H219.694V63.56C219.694 60.3067 218.894 57.9067 217.294 56.36C215.747 54.76 213.294 53.96 209.934 53.96C207.374 53.96 205.027 54.52 202.894 55.64C200.814 56.7067 199.107 58.12 197.774 59.88C196.44 61.5867 195.667 63.48 195.454 65.56L195.374 61.24C195.64 59.2667 196.227 57.4 197.134 55.64C198.04 53.8267 199.24 52.2267 200.734 50.84C202.227 49.4 203.987 48.28 206.014 47.48C208.04 46.68 210.28 46.28 212.734 46.28ZM271.662 73.88H280.222C279.795 76.6 278.729 79.0267 277.022 81.16C275.369 83.24 273.102 84.8933 270.222 86.12C267.342 87.2933 263.902 87.88 259.902 87.88C255.369 87.88 251.315 87.0533 247.742 85.4C244.169 83.6933 241.369 81.2933 239.342 78.2C237.315 75.1067 236.302 71.4267 236.302 67.16C236.302 62.9467 237.289 59.2667 239.262 56.12C241.235 52.9733 243.955 50.5467 247.422 48.84C250.942 47.1333 254.995 46.28 259.582 46.28C264.329 46.28 268.275 47.1333 271.422 48.84C274.622 50.4933 276.995 53 278.542 56.36C280.089 59.6667 280.729 63.8533 280.462 68.92H245.342C245.609 71.16 246.329 73.1867 247.502 75C248.729 76.76 250.382 78.1467 252.462 79.16C254.542 80.12 256.969 80.6 259.742 80.6C262.835 80.6 265.422 79.9867 267.502 78.76C269.635 77.5333 271.022 75.9067 271.662 73.88ZM259.342 53.48C255.715 53.48 252.729 54.3867 250.382 56.2C248.035 57.96 246.515 60.2267 245.822 63H271.502C271.289 60.0133 270.089 57.6933 267.902 56.04C265.715 54.3333 262.862 53.48 259.342 53.48ZM327.299 47.16L308.579 69.16L294.499 87H283.619L303.299 63.8L316.499 47.16H327.299ZM283.619 47.16H294.579L308.659 63.8L328.339 87H317.459L302.899 69.32L283.619 47.16ZM351.22 80.84C347.487 80.84 344.1 80.1733 341.06 78.84C338.073 77.5067 335.7 75.56 333.94 73C332.233 70.44 331.38 67.3733 331.38 63.8C331.38 60.2267 332.207 57.1333 333.86 54.52C335.567 51.9067 337.913 49.88 340.9 48.44C343.94 47 347.38 46.28 351.22 46.28C352.34 46.28 353.407 46.36 354.42 46.52C355.487 46.68 356.5 46.8933 357.46 47.16L376.1 47.24V54.68C373.54 54.7333 370.953 54.3867 368.34 53.64C365.78 52.84 363.513 52.0133 361.54 51.16L361.3 50.68C363.113 51.5867 364.74 52.7067 366.18 54.04C367.673 55.32 368.847 56.7867 369.7 58.44C370.553 60.0933 370.98 61.96 370.98 64.04C370.98 67.56 370.127 70.5733 368.42 73.08C366.767 75.5867 364.447 77.5067 361.46 78.84C358.527 80.1733 355.113 80.84 351.22 80.84ZM364.02 103.24V101.4C364.02 98.7867 363.247 96.9467 361.7 95.88C360.153 94.8133 357.993 94.28 355.22 94.28H344.42C342.287 94.28 340.447 94.0933 338.9 93.72C337.407 93.4 336.207 92.8933 335.3 92.2C334.393 91.56 333.727 90.7867 333.3 89.88C332.873 89.0267 332.66 88.0667 332.66 87C332.66 84.8667 333.3 83.2667 334.58 82.2C335.913 81.1333 337.647 80.44 339.78 80.12C341.967 79.8 344.26 79.7467 346.66 79.96L351.22 80.84C348.073 80.9467 345.673 81.24 344.02 81.72C342.42 82.1467 341.62 83.0267 341.62 84.36C341.62 85.16 341.94 85.8 342.58 86.28C343.22 86.76 344.127 87 345.3 87H356.66C359.913 87 362.767 87.3733 365.22 88.12C367.673 88.92 369.567 90.2267 370.9 92.04C372.287 93.9067 372.98 96.44 372.98 99.64V103.24H364.02ZM351.22 73.88C353.353 73.88 355.247 73.48 356.9 72.68C358.553 71.88 359.86 70.7333 360.82 69.24C361.78 67.7467 362.26 65.9333 362.26 63.8C362.26 61.6667 361.78 59.8267 360.82 58.28C359.86 56.7333 358.553 55.56 356.9 54.76C355.247 53.96 353.353 53.56 351.22 53.56C349.14 53.56 347.247 53.96 345.54 54.76C343.887 55.56 342.58 56.7333 341.62 58.28C340.66 59.7733 340.18 61.6133 340.18 63.8C340.18 65.9333 340.66 67.7467 341.62 69.24C342.58 70.7333 343.887 71.88 345.54 72.68C347.193 73.48 349.087 73.88 351.22 73.88ZM391.706 74.84V67.08H422.586V74.84H391.706ZM379.706 87L402.346 35.16H412.106L434.906 87H425.066L405.226 40.2H409.226L389.466 87H379.706ZM444.151 35.16H453.271V87H444.151V35.16Z" fill="#1A232A"/>
</svg>
